<svg width="512" height="512" viewBox="0 0 512 512" fill="none" xmlns="http://www.w3.org/2000/svg">
<g clip-path="url(#clip0_24_55)">
<path fill-rule="evenodd" clip-rule="evenodd" d="M92 16C98.6264 16 104 21.3736 104 28C104 34.6264 98.6264 40 92 40C85.3736 40 80 34.6264 80 28C80 21.3736 85.3736 16 92 16ZM97.7039 29.5957H97.707V34.9965C97.707 35.2089 97.5337 35.3822 97.3213 35.3822H93.8325C93.6201 35.3822 93.4468 35.2089 93.4468 34.9965V32.06C93.4468 31.8476 93.2736 31.6743 93.0612 31.6743H90.9393C90.7269 31.6743 90.5536 31.8476 90.5536 32.06V34.9965C90.5536 35.2089 90.3804 35.3822 90.168 35.3822H86.6792C86.4668 35.3822 86.2935 35.2089 86.2935 34.9965V29.5957H86.2932L89.1381 26.7025L91.7081 24.089C91.7834 24.0125 91.8758 23.9737 91.9833 23.9737C92.0905 23.9737 92.1829 24.0125 92.2582 24.089L94.8282 26.7025L97.7039 29.5957ZM92.5517 20.8485L96.5344 24.8987L99.7767 28.1961C99.9992 28.4225 100.061 28.7423 99.938 29.0351C99.8151 29.3279 99.544 29.5083 99.2265 29.5083H99.2072C98.9924 29.5083 98.8076 29.4309 98.6571 29.2777L95.4304 25.9962L92.5271 23.0434C92.3764 22.8904 92.1917 22.8128 91.9769 22.8128C91.7622 22.8128 91.5774 22.8904 91.4268 23.0434L88.5232 25.9962C87.4478 27.09 86.3721 28.184 85.2967 29.2777C85.2861 29.2885 85.2757 29.2979 85.2654 29.3058C85.1311 29.4242 84.9549 29.496 84.7618 29.496C84.3412 29.496 83.9999 29.1548 83.9999 28.734C83.9999 28.5016 84.104 28.2936 84.2682 28.1537L87.4688 24.8987L91.4515 20.8485C91.6021 20.6953 91.7868 20.6178 92.0017 20.6178C92.2164 20.6178 92.4012 20.6954 92.5517 20.8485Z" fill="#178FEB"/>
</g>
<path d="M46.8702 44.1258H45.4248L44.9125 43.6318C46.7675 41.4802 47.787 38.7333 47.785 35.8925C47.785 33.5404 47.0875 31.2411 45.7808 29.2854C44.474 27.3297 42.6166 25.8054 40.4436 24.9053C38.2705 24.0052 35.8793 23.7696 33.5724 24.2285C31.2655 24.6874 29.1464 25.82 27.4832 27.4832C25.82 29.1464 24.6874 31.2655 24.2285 33.5724C23.7696 35.8793 24.0052 38.2705 24.9053 40.4436C25.8054 42.6166 27.3297 44.474 29.2854 45.7808C31.2411 47.0875 33.5404 47.785 35.8925 47.785C38.8382 47.785 41.546 46.7055 43.6318 44.9125L44.1258 45.4248V46.8702L53.2739 56L56 53.2739L46.8702 44.1258ZM35.8925 44.1258C31.3368 44.1258 27.6592 40.4483 27.6592 35.8925C27.6592 31.3368 31.3368 27.6592 35.8925 27.6592C40.4483 27.6592 44.1258 31.3368 44.1258 35.8925C44.1258 40.4483 40.4483 44.1258 35.8925 44.1258Z" fill="black"/>
<path d="M53.9946 101.997V93.249H45.2463M26 74.0027V82.751H34.7483M53.8861 86.2503C53.5199 83.3414 52.2495 80.6208 50.2543 78.4725C48.259 76.3241 45.6396 74.8565 42.7656 74.2766C39.8916 73.6967 36.908 74.0338 34.2358 75.2403C31.5636 76.4469 29.3377 78.462 27.8721 81.0014M26.1085 89.7497C26.4747 92.6586 27.7451 95.3792 29.7403 97.5275C31.7356 99.6759 34.355 101.144 37.229 101.723C40.103 102.303 43.0866 101.966 45.7588 100.76C48.431 99.5531 50.6569 97.538 52.1225 94.9986" stroke="black" stroke-width="3" stroke-linecap="round" stroke-linejoin="round"/>
<path d="M29.6667 146.333C28.9333 146.333 28.3053 146.072 27.7827 145.549C27.26 145.027 26.9991 144.399 27 143.667V127.667C27 126.933 27.2613 126.305 27.784 125.783C28.3067 125.26 28.9342 124.999 29.6667 125H37.6667L40.3333 127.667H51C51.7333 127.667 52.3613 127.928 52.884 128.451C53.4067 128.973 53.6676 129.601 53.6667 130.333V143.667C53.6667 144.4 53.4053 145.028 52.8827 145.551C52.36 146.073 51.7324 146.334 51 146.333H29.6667ZM29.6667 143.667H51V130.333H39.2333L36.5667 127.667H29.6667V143.667Z" fill="black"/>
<path d="M38 192V175.7L32.8 180.9L30 178L40 168L50 178L47.2 180.9L42 175.7V192H38ZM28 200C26.9 200 25.958 199.608 25.174 198.824C24.39 198.04 23.9987 197.099 24 196V190H28V196H52V190H56V196C56 197.1 55.608 198.042 54.824 198.826C54.04 199.61 53.0987 200.001 52 200H28Z" fill="black"/>
<path d="M100 82.0143L97.9857 80L90 87.9857L82.0143 80L80 82.0143L87.9857 90L80 97.9857L82.0143 100L90 92.0143L97.9857 100L100 97.9857L92.0143 90L100 82.0143Z" fill="black"/>
<path fill-rule="evenodd" clip-rule="evenodd" d="M82 154C82 149.582 85.5818 146 90 146C94.4182 146 98 149.582 98 154C98 158.418 94.4182 162 90 162C85.5818 162 82 158.418 82 154Z" fill="#376CFB"/>
<path d="M88.7222 157.137L85.6364 154.051L86.6647 153.023L88.7222 155.079L92.8356 150.965L93.8647 151.994L88.7222 157.136V157.137Z" fill="white"/>
<path d="M90 178C88.4178 178 86.871 178.469 85.5554 179.348C84.2398 180.227 83.2145 181.477 82.609 182.939C82.0035 184.4 81.845 186.009 82.1537 187.561C82.4624 189.113 83.2243 190.538 84.3431 191.657C85.462 192.776 86.8874 193.538 88.4393 193.846C89.9911 194.155 91.5997 193.997 93.0615 193.391C94.5233 192.786 95.7727 191.76 96.6518 190.445C97.5308 189.129 98 187.582 98 186C97.9975 183.879 97.1539 181.846 95.6541 180.346C94.1544 178.846 92.121 178.002 90 178ZM90 193.059C88.6039 193.059 87.2391 192.645 86.0783 191.869C84.9175 191.094 84.0128 189.991 83.4785 188.701C82.9442 187.411 82.8044 185.992 83.0768 184.623C83.3492 183.254 84.0215 181.996 85.0087 181.009C85.9959 180.021 87.2536 179.349 88.6229 179.077C89.9922 178.804 91.4115 178.944 92.7013 179.478C93.9911 180.013 95.0936 180.918 95.8692 182.078C96.6448 183.239 97.0588 184.604 97.0588 186C97.0567 187.871 96.3124 189.666 94.989 190.989C93.6657 192.312 91.8715 193.057 90 193.059ZM94.8627 186C94.8627 186.125 94.8132 186.245 94.7249 186.333C94.6367 186.421 94.517 186.471 94.3922 186.471H90C89.8752 186.471 89.7555 186.421 89.6672 186.333C89.579 186.245 89.5294 186.125 89.5294 186V181.608C89.5294 181.483 89.579 181.363 89.6672 181.275C89.7555 181.187 89.8752 181.137 90 181.137C90.1248 181.137 90.2445 181.187 90.3328 181.275C90.421 181.363 90.4706 181.483 90.4706 181.608V185.529H94.3922C94.517 185.529 94.6367 185.579 94.7249 185.667C94.8132 185.755 94.8627 185.875 94.8627 186Z" fill="black"/>
<path d="M166 25.5L166 35.5L166 23C166 22.8029 165.962 22.6078 165.886 22.4257C165.811 22.2436 165.701 22.0781 165.561 21.9388C165.422 21.7994 165.256 21.6889 165.074 21.6136C164.892 21.5384 164.697 21.4997 164.5 21.5H156.875C156.652 21.5 156.431 21.4502 156.23 21.3542C156.028 21.2582 155.851 21.1184 155.71 20.945L154.73 19.74C154.543 19.5089 154.307 19.3224 154.039 19.1944C153.771 19.0663 153.477 18.9999 153.18 19H147.5C147.303 18.9997 147.108 19.0384 146.926 19.1136C146.744 19.1889 146.578 19.2994 146.439 19.4388C146.299 19.5781 146.189 19.7436 146.114 19.9257C146.038 20.1078 146 20.3029 146 20.5V35.285C145.999 35.5102 146.043 35.7333 146.13 35.9412C146.217 36.149 146.344 36.3373 146.505 36.495C146.663 36.6558 146.851 36.7834 147.059 36.8701C147.267 36.9569 147.49 37.001 147.715 37H164.545C164.917 36.9999 165.278 36.8795 165.575 36.6569C165.873 36.4343 165.895 36.1214 166 35.765V26.5C166.043 26.351 166 25.6367 166 25C165.972 24.8474 166 26.4375 166 26.2713C166 26 166.003 26.0264 166 25.8633C165.967 25.4991 166 25.6344 166 25.5Z" fill="#178FEB"/>
<path d="M231 25H229V23C229 22.8029 228.962 22.6078 228.886 22.4257C228.811 22.2436 228.701 22.0781 228.561 21.9388C228.422 21.7994 228.256 21.6889 228.074 21.6136C227.892 21.5384 227.697 21.4997 227.5 21.5H219.875C219.652 21.5 219.431 21.4502 219.23 21.3542C219.028 21.2582 218.851 21.1184 218.71 20.945L217.73 19.74C217.543 19.5089 217.307 19.3224 217.039 19.1944C216.771 19.0663 216.477 18.9999 216.18 19H210.5C210.303 18.9997 210.108 19.0384 209.926 19.1136C209.744 19.1889 209.578 19.2994 209.439 19.4388C209.299 19.5781 209.189 19.7436 209.114 19.9257C209.038 20.1078 209 20.3029 209 20.5V35.285C208.999 35.5102 209.043 35.7333 209.13 35.9412C209.217 36.149 209.344 36.3373 209.505 36.495C209.663 36.6558 209.851 36.7834 210.059 36.8701C210.267 36.9569 210.49 37.001 210.715 37H227.545C227.917 36.9999 228.278 36.8795 228.575 36.6569C228.873 36.4343 229.09 36.1214 229.195 35.765L231.96 26.28C232.003 26.131 232.011 25.974 231.983 25.8214C231.955 25.6688 231.892 25.5247 231.799 25.4006C231.706 25.2765 231.585 25.1757 231.447 25.1062C231.308 25.0367 231.155 25.0003 231 25Z" fill="#178FEB"/>
<path d="M230.999 25H216.786C216.415 25 216.054 25.1204 215.757 25.3431C215.46 25.5658 215.244 25.8788 215.14 26.235L212.36 35.7657C212.256 36.1218 212.04 36.4346 211.743 36.6571C211.446 36.8797 211.085 37 210.714 37H227.546C227.917 37 228.279 36.8797 228.575 36.657C228.872 36.4343 229.089 36.1213 229.193 35.765L231.959 26.28C232.003 26.131 232.011 25.9738 231.983 25.8211C231.956 25.6684 231.893 25.5242 231.799 25.4C231.706 25.2758 231.585 25.175 231.447 25.1056C231.308 25.0361 231.155 25 230.999 25Z" fill="#5DB1F1"/>
<path d="M278.147 16H286.177L292.975 23.0919V36.8779C292.975 38.6023 291.577 40 289.853 40H278.147C276.423 40 275.025 38.6023 275.025 36.8779V19.1221C275.025 17.3977 276.423 16 278.147 16Z" fill="#178FEB"/>
<path opacity="0.302" fill-rule="evenodd" clip-rule="evenodd" d="M286.168 16V23.0337H292.975L286.168 16Z" fill="white"/>
<defs>
<clipPath id="clip0_24_55">
<rect width="24" height="24" fill="white" transform="translate(80 16)"/>
</clipPath>
</defs>
</svg>
